<svg aria-hidden="true" style="position:absolute;width:0;height:0" xmlns="http://www.w3.org/2000/svg" overflow="hidden">
<defs>
    <symbol id="icon-star" viewBox="0 0 34 32">
        <path d="M15.24 1.561c.504-1.552 2.699-1.552 3.204 0l2.558 7.872a1.684 1.684 0 001.602 1.164h8.277c1.632 0 2.31 2.088.99 3.047l-6.696 4.865a1.685 1.685 0 00-.612 1.883l2.558 7.872c.504 1.552-1.272 2.842-2.592 1.883l-6.696-4.865a1.684 1.684 0 00-1.98 0l-6.696 4.865c-1.32.959-3.096-.331-2.592-1.883l2.558-7.872a1.685 1.685 0 00-.612-1.883l-6.696-4.865c-1.32-.959-.642-3.047.99-3.047h8.277c.73 0 1.376-.47 1.602-1.164l2.558-7.872z"/>
    </symbol>
    <symbol id="icon-location" viewBox="0 0 23 32">
        <path d="M11.733 1.193c6.47 0 11.733 5.264 11.733 11.733 0 2.56-.809 4.993-2.341 7.034l-8.669 11.676c-.022.028-.055.039-.079.064-.433.464-1.058.347-1.367-.064-2.496-3.331-7.072-9.552-8.832-11.899l-.001-.003-.011-.014a11.648 11.648 0 01-2.167-6.794c0-6.47 5.264-11.733 11.733-11.733zm0 18.063c3.483 0 6.33-2.847 6.33-6.33s-2.847-6.33-6.33-6.33-6.33 2.847-6.33 6.33 2.847 6.33 6.33 6.33z"/>
    </symbol>
    <symbol id="icon-phone" viewBox="0 0 32 32">
        <path d="M29.43 21.003c-1.959 0-3.882-.306-5.705-.909-.893-.305-1.991-.025-2.536.535l-3.598 2.716c-4.172-2.227-6.743-4.797-8.939-8.938l2.636-3.504a2.584 2.584 0 00.636-2.62 18.192 18.192 0 01-.912-5.715A2.57 2.57 0 008.445 0H2.569A2.57 2.57 0 00.001 2.568c0 16.228 13.202 29.43 29.43 29.43a2.57 2.57 0 002.568-2.568v-5.86a2.57 2.57 0 00-2.568-2.567z"/>
    </symbol>
    <symbol id="icon-chat" viewBox="0 0 46 32">
        <path d="M35.369 13.998c0-8.062-8.498-13.347-16.983-13.347C9.868.651 1.403 5.96 1.403 13.998c0 3.041 1.332 6.014 3.75 8.373.093.09.128.227.092.358-.76 2.783-2.559 5.296-3.297 6.248a.952.952 0 00-.098 1.022.952.952 0 00.856.527h.025c3.612-.09 7.799-1.11 10.387-3.654a.37.37 0 01.347-.094c1.59.377 3.246.568 4.92.568 8.516 0 16.983-5.307 16.983-13.347zm-21.604 11.52a1.653 1.653 0 00-1.552.43c-2.588 2.545-6.814 3.123-8.815 3.252.914-1.262 2.4-3.578 3.096-6.131a1.658 1.658 0 00-.437-1.624c-2.198-2.143-3.36-4.719-3.36-7.447 0-6.646 7.038-12.053 15.689-12.053s15.69 5.407 15.69 12.053c0 6.646-7.038 12.053-15.69 12.053-1.574 0-3.129-.18-4.622-.533z"/>
        <path d="M39.529 24.743c3.77-1.905 6.022-5.153 6.022-8.687 0-4.995-4.515-9.263-10.737-10.149a.646.646 0 10-.182 1.28c5.577.794 9.625 4.524 9.625 8.868 0 3.036-1.986 5.852-5.311 7.533a1.599 1.599 0 00-.843 1.757c.315 1.482.987 2.854 1.524 3.784-3.819-.636-5.267-2.468-5.724-3.261a1.595 1.595 0 00-1.381-.793h-.052c-.717 0-1.435-.05-2.134-.148a.646.646 0 10-.18 1.28c.758.107 1.537.161 2.314.161h.053a.3.3 0 01.26.146c1.751 3.035 5.778 3.81 7.427 4.003.364.042.712-.124.906-.436s.192-.695-.006-1.004c-.497-.774-1.384-2.323-1.741-4.002a.305.305 0 01.161-.334zM8.324 11.685c-1.236 0-2.241 1.005-2.241 2.241s1.005 2.241 2.241 2.241c1.236 0 2.241-1.005 2.241-2.241s-1.005-2.241-2.241-2.241zm0 3.189a.949.949 0 11.001-1.897.949.949 0 01-.001 1.897zM14.718 11.685c-1.236 0-2.241 1.005-2.241 2.241s1.005 2.241 2.241 2.241c1.236 0 2.241-1.005 2.241-2.241s-1.005-2.241-2.241-2.241zm0 3.189a.949.949 0 11.001-1.897.949.949 0 01-.001 1.897zM21.111 11.685c-1.236 0-2.241 1.005-2.241 2.241s1.005 2.241 2.241 2.241c1.236 0 2.241-1.005 2.241-2.241s-1.005-2.241-2.241-2.241zm0 3.189a.949.949 0 11.001-1.897.949.949 0 01-.001 1.897zM27.505 11.685c-1.236 0-2.241 1.005-2.241 2.241s1.006 2.241 2.241 2.241c1.236 0 2.241-1.005 2.241-2.241s-1.005-2.241-2.241-2.241zm0 3.189a.949.949 0 11.001-1.897.949.949 0 01-.001 1.897z"/>
    </symbol>
    <symbol id="icon-chef-hat" viewBox="0 0 35 32">
        <path d="M25.172 8.292a.471.471 0 01-.467-.467 6.844 6.844 0 00-6.841-6.705 6.84 6.84 0 00-6.841 6.705.471.471 0 01-.467.467.471.471 0 01-.467-.467 7.778 7.778 0 0115.552 0 .47.47 0 01-.467.467z"/>
        <path d="M26.536 18.868a.466.466 0 01-.47-.465.466.466 0 01.465-.47 6.791 6.791 0 006.754-6.706 6.789 6.789 0 00-6.837-6.721 6.953 6.953 0 00-2.036.302c-.118.034-.245.021-.352-.038s-.189-.157-.225-.274a.47.47 0 01.303-.582 7.896 7.896 0 012.31-.343 7.725 7.725 0 017.772 7.655 7.734 7.734 0 01-7.677 7.641h-.006zM9.188 18.868h-.006a7.729 7.729 0 01-7.677-7.641 7.722 7.722 0 017.772-7.655 7.896 7.896 0 012.31.343.463.463 0 01.281.227.469.469 0 01-.555.667 6.953 6.953 0 00-2.036-.302 6.789 6.789 0 00-6.837 6.721 6.793 6.793 0 006.754 6.706.463.463 0 01.33.139.478.478 0 01.134.331.463.463 0 01-.139.33.467.467 0 01-.331.135z"/>
        <path d="M26.536 30.495H9.188a.47.47 0 01-.467-.467V18.402a.471.471 0 01.467-.467.47.47 0 01.467.467V29.56h16.413V18.402a.47.47 0 01.797-.33.465.465 0 01.137.33v11.626a.47.47 0 01-.467.467z"/>
        <path d="M29.788 25.966H12.44a.47.47 0 01-.33-.797.471.471 0 01.33-.137h17.348a.47.47 0 01.33.797.465.465 0 01-.33.137z"/>
    </symbol>
    <symbol id="icon-clock" viewBox="0 0 34 32">
        <path d="M16.631.249C7.931.249.853 7.327.853 16.027s7.078 15.778 15.778 15.778 15.778-7.078 15.778-15.778S25.331.249 16.631.249zm0 30.503c-8.12 0-14.726-6.606-14.726-14.726S8.511 1.3 16.631 1.3c8.12 0 14.726 6.606 14.726 14.726s-6.606 14.726-14.726 14.726z"/>
        <path d="M17.157 13.934V8.6a.526.526 0 00-1.052 0v5.334a2.098 2.098 0 00-1.503 1.503h-3.756a.526.526 0 000 1.052h3.756a2.102 2.102 0 002.029 1.578c1.16 0 2.104-.944 2.104-2.104a2.1 2.1 0 00-1.578-2.029zm-.526 3.081c-.58 0-1.052-.472-1.052-1.052s.472-1.052 1.052-1.052c.58 0 1.052.472 1.052 1.052s-.472 1.052-1.052 1.052zM16.631 5.445c.29 0 .526-.235.526-.526v-.526a.526.526 0 00-1.052 0v.526c0 .291.236.526.526.526zM16.631 26.482a.526.526 0 00-.526.526v.526a.526.526 0 001.052 0v-.526a.526.526 0 00-.526-.526zM28.201 15.437h-.526a.526.526 0 000 1.052h.526a.526.526 0 000-1.052zM5.587 15.437h-.526a.526.526 0 000 1.052h.526a.526.526 0 000-1.052zM24.441 7.41l-.372.372a.525.525 0 10.744.744l.372-.372a.525.525 0 10-.744-.744zM8.45 23.4l-.372.372a.525.525 0 10.744.744l.372-.372a.525.525 0 10-.744-.744zM24.813 23.401a.525.525 0 10-.744.744l.372.372a.523.523 0 00.744 0 .525.525 0 000-.744l-.372-.372zM8.822 7.409a.525.525 0 10-.744.744l.372.372a.523.523 0 00.744 0 .525.525 0 000-.744l-.372-.372z"/>
    </symbol>
    <symbol id="icon-people" viewBox="0 0 35 32">
        <path d="M11.976.729c-3.63 0-6.587 2.957-6.587 6.587s2.957 6.587 6.587 6.587 6.587-2.957 6.587-6.587S15.606.729 11.976.729zm0 12.07c-3.031 0-5.489-2.465-5.489-5.489s2.465-5.489 5.489-5.489c3.031 0 5.489 2.465 5.489 5.489S15 12.799 11.976 12.799zM25.467 3.463c-2.728 0-4.944 2.216-4.944 4.944s2.216 4.944 4.944 4.944c2.728 0 4.944-2.216 4.944-4.944s-2.216-4.944-4.944-4.944zm0 8.797c-2.122 0-3.846-1.724-3.846-3.846s1.724-3.846 3.846-3.846 3.846 1.724 3.846 3.846-1.724 3.846-3.846 3.846z"/>
        <path d="M34.31 20.599c-.498-3.004-2.364-5.537-5.543-6.864 0 0-1.408 1.064-3.3 1.031-2.068-.04-3.3-1.031-3.3-1.031s-1.536.572-2.775 1.765c-1.145-1.017-3.078-1.846-3.078-1.846s-1.771 1.347-4.344 1.327c-2.701-.02-4.331-1.327-4.331-1.327s-5.84 2.007-7.072 8.817c0 0-1.32 3.61 1.738 9.005h19.351s1.374-2.391 1.616-3.846h9.625c2.364-3.583 1.414-7.032 1.414-7.032zm-13.336 9.779H2.983c-2.351-4.466-1.334-7.726-1.334-7.726a10.433 10.433 0 015.907-7.759c2.694 1.583 6.15 1.583 8.844 0a10.432 10.432 0 015.907 7.759c-.007 0 .97 4.014-1.334 7.726zm11.282-3.845h-8.763c.337-1.94-.108-4.061-.108-4.061a11.502 11.502 0 00-3.186-6.23 7.87 7.87 0 011.879-1.266 6.889 6.889 0 006.769 0 7.849 7.849 0 014.378 5.806s.802 2.721-.97 5.752z"/>
    </symbol>
    <symbol id="icon-facebook" viewBox="0 0 19 32">
        <path d="M16.649.007L12.499 0C7.837 0 4.824 3.091 4.824 7.875v3.631H.652a.652.652 0 00-.652.653v5.261c0 .361.292.652.652.652h4.172v13.275c0 .361.292.653.652.653h5.444a.652.652 0 00.652-.653V18.072h4.878a.651.651 0 00.652-.652l.002-5.261a.652.652 0 00-.653-.652h-4.88V8.429c0-1.479.353-2.231 2.28-2.231l2.795-.001c.36 0 .652-.292.652-.652V.66a.652.652 0 00-.651-.652z"/>
    </symbol>
    <symbol id="icon-instagram" viewBox="0 0 32 32">
        <path d="M16.316 32h-.319c-2.508.006-4.826-.058-7.08-.195-2.066-.126-3.953-.84-5.455-2.065-1.45-1.182-2.44-2.781-2.942-4.75-.438-1.715-.461-3.398-.483-5.026a343.853 343.853 0 01-.036-3.96c.003-1.414.02-2.798.036-3.966.022-1.628.045-3.311.483-5.026.503-1.97 1.493-3.568 2.942-4.75C4.965 1.037 6.851.323 8.917.197c2.254-.137 4.572-.201 7.086-.195 2.509-.005 4.826.058 7.08.195 2.067.126 3.953.84 5.455 2.065 1.45 1.182 2.44 2.781 2.942 4.75.438 1.715.461 3.398.483 5.026.016 1.168.033 2.553.036 3.96v.006c-.003 1.408-.02 2.792-.036 3.96-.022 1.628-.045 3.311-.483 5.026-.503 1.97-1.492 3.568-2.942 4.75-1.503 1.225-3.389 1.939-5.455 2.065-2.158.131-4.376.195-6.768.195zm-.319-2.5c2.468.006 4.733-.056 6.934-.19 1.563-.095 2.918-.602 4.027-1.507 1.026-.837 1.732-1.991 2.1-3.431.364-1.428.385-2.96.406-4.442.016-1.16.032-2.535.036-3.929a339.15 339.15 0 00-.036-3.929c-.02-1.482-.041-3.015-.406-4.443-.368-1.44-1.074-2.594-2.1-3.431-1.11-.905-2.465-1.412-4.027-1.507a108.807 108.807 0 00-6.928-.19c-2.467-.006-4.733.056-6.934.19-1.563.095-2.917.602-4.027 1.507-1.026.837-1.732 1.991-2.1 3.431-.364 1.428-.385 2.96-.406 4.443a363.726 363.726 0 00-.036 3.932c.003 1.389.02 2.765.036 3.926.02 1.482.041 3.015.406 4.442.367 1.44 1.074 2.594 2.1 3.431 1.11.905 2.465 1.412 4.027 1.507 2.201.134 4.467.197 6.928.191zm-.06-5.688c-4.308 0-7.813-3.505-7.813-7.813s3.505-7.813 7.813-7.813 7.813 3.505 7.813 7.813-3.505 7.813-7.813 7.813zm0-13.125c-2.929 0-5.313 2.383-5.313 5.313s2.383 5.313 5.313 5.313c2.93 0 5.313-2.383 5.313-5.313s-2.383-5.313-5.313-5.313zm8.688-5a1.874 1.874 0 10-.001 3.749 1.874 1.874 0 00.001-3.749z"/>
    </symbol>
    <symbol id="icon-twitter" viewBox="0 0 41 32">
        <path d="M40.421 3.788a17.658 17.658 0 01-4.775 1.275c1.718-.999 3.029-2.57 3.645-4.463a16.82 16.82 0 01-5.255 1.954 8.408 8.408 0 00-6.053-2.555c-4.588 0-8.281 3.628-8.281 8.076 0 .64.056 1.255.192 1.841-6.889-.327-12.985-3.545-17.08-8.446A7.97 7.97 0 001.68 5.551c0 2.796 1.478 5.275 3.681 6.71a8.36 8.36 0 01-3.744-.994v.089c0 3.924 2.872 7.183 6.639 7.934-.675.18-1.41.266-2.173.266-.531 0-1.066-.03-1.569-.138 1.074 3.197 4.12 5.548 7.743 5.625a16.93 16.93 0 01-10.275 3.444c-.68 0-1.331-.03-1.983-.111 3.671 2.307 8.021 3.623 12.712 3.623 15.249 0 23.586-12.308 23.586-22.976 0-.357-.013-.702-.03-1.044a16.29 16.29 0 004.153-4.192z"/>
    </symbol>
    <symbol id="icon-close" viewBox="0 0 32 32">
        <path d="M30.355 32a1.646 1.646 0 001.163-2.811L2.811.482A1.646 1.646 0 10.483 2.811L29.19 31.517a1.65 1.65 0 001.165.483z"/>
        <path d="M1.645 32c.422 0 .843-.16 1.163-.483L31.517 2.811A1.647 1.647 0 0029.188.482L.481 29.189A1.646 1.646 0 001.644 32z"/>
    </symbol>
    <symbol id="icon-burger-menu" viewBox="0 0 60 32">
        <path d="M2 0h56a2 2 0 110 4H2a2 2 0 110-4zM2 14h56a2 2 0 110 4H2a2 2 0 110-4zM2 28h56a2 2 0 110 4H2a2 2 0 110-4z"/>
    </symbol>
</defs>
</svg>