<svg width="1280" height="1600" fill="none" xmlns="http://www.w3.org/2000/svg"><path d="M57.677 379.769c13.739 76.945-38.163 70.722-65.83 57.992V1382.6c0 184.64-13.155 104.63 0 156.64 7.982 31.56 51.52-121.28 40.07-156.64-11.449-35.36-8.586-101.84 41.502-115.98 50.089-14.15 57.245-46.68 83.005-87.7 25.76-41.02 91.591-121.64 251.875-59.4 160.284 62.23 266.186 5.65 342.035-50.92 150.267-112.091 405.126.55 475.956 96.57 37.17 50.38-64.22 308.04 0 332.06 32.09 12 60.71 232.61 60.71-12V364.21c-.95 10.373-8.01 28.006-28.62 15.559-60.68-30.551-35.78-123.998-15.74-166.903 10.97-41.018 14.59-137.2-58.68-193.777-86.17-66.538-339.754 62.236-486.862 62.236-160.72 0-238.71-36.776-334.594-70.722-95.885-33.946-171.734 24.045-201.787 70.721-30.053 46.677-31.484 65.064-77.28 86.281-90.16 32.532-42.933 115.983-25.76 212.164z" fill="#FEF3E4"/></svg>